<?xml version="1.0" standalone="no"?>
<!DOCTYPE svg PUBLIC "-//W3C//DTD SVG 20010904//EN"
 "http://www.w3.org/TR/2001/REC-SVG-20010904/DTD/svg10.dtd">
<svg version="1.0" xmlns="http://www.w3.org/2000/svg"
 width="838.000000pt" height="838.000000pt" viewBox="0 0 838.000000 838.000000"
 preserveAspectRatio="xMidYMid meet">
<metadata>
Created by potrace 1.11, written by Peter Selinger 2001-2013
</metadata>
<g transform="translate(0.000000,838.000000) scale(0.100000,-0.100000)"
fill="#000000" stroke="none">
<path d="M3959 8356 c-2 -2 -44 -6 -94 -10 -49 -3 -126 -10 -170 -16 -44 -5
-100 -13 -125 -16 -25 -3 -52 -7 -60 -9 -8 -2 -31 -7 -50 -10 -73 -12 -189
-37 -285 -62 -55 -14 -107 -26 -115 -28 -8 -2 -79 -24 -156 -49 -343 -111
-670 -267 -974 -464 -114 -74 -293 -204 -354 -257 -6 -5 -38 -32 -71 -60 -222
-184 -462 -440 -648 -690 -37 -49 -70 -95 -74 -100 -27 -35 -128 -192 -139
-215 -4 -8 -15 -26 -24 -40 -41 -61 -182 -331 -234 -450 -94 -215 -211 -562
-241 -719 -2 -13 -6 -30 -9 -39 -3 -9 -7 -28 -10 -42 -3 -14 -14 -72 -26 -128
-11 -57 -22 -120 -24 -140 -4 -36 -13 -107 -21 -168 -21 -151 -27 -650 -11
-804 5 -41 10 -86 11 -100 4 -43 17 -154 20 -170 1 -8 6 -35 10 -60 4 -25 9
-52 10 -60 26 -124 47 -220 51 -240 3 -14 7 -32 9 -40 2 -8 4 -15 5 -15 1 0 3
-7 5 -15 7 -37 50 -184 82 -280 76 -228 214 -538 334 -745 48 -84 179 -291
206 -325 6 -8 47 -62 90 -120 99 -134 105 -141 216 -265 234 -261 504 -494
794 -687 153 -101 186 -121 303 -185 270 -148 564 -269 845 -349 93 -27 265
-70 313 -79 15 -3 38 -7 52 -10 31 -7 193 -33 240 -39 192 -25 280 -30 535
-31 305 0 450 11 685 51 19 3 46 8 60 10 23 4 93 18 145 28 11 3 58 14 105 26
47 11 95 23 107 26 12 2 86 25 165 50 516 166 999 432 1411 777 204 171 471
449 611 636 22 31 47 62 54 70 28 29 222 330 285 441 227 403 408 910 477
1340 5 36 12 74 14 85 2 11 7 49 11 85 4 36 9 79 11 95 13 99 19 248 19 455 0
242 -7 350 -30 525 -3 22 -8 58 -10 80 -3 22 -8 51 -10 65 -3 14 -12 61 -20
105 -18 97 -18 99 -45 205 -11 47 -23 94 -25 104 -46 206 -268 758 -356 886
-9 14 -16 27 -16 30 2 9 -114 202 -186 310 -70 104 -221 306 -274 366 -15 18
-48 56 -73 85 -139 163 -442 442 -624 574 -16 11 -47 34 -70 51 -161 121 -450
288 -691 399 -193 90 -529 209 -675 240 -8 2 -62 15 -120 29 -132 32 -381 74
-486 82 -43 3 -83 9 -88 12 -10 6 -571 13 -577 8z"/>
</g>
</svg>
